<?xml version="1.0" standalone="no"?>
<!DOCTYPE svg PUBLIC "-//W3C//DTD SVG 20010904//EN"
 "http://www.w3.org/TR/2001/REC-SVG-20010904/DTD/svg10.dtd">
<svg version="1.0" xmlns="http://www.w3.org/2000/svg"
 width="320.000000pt" height="320.000000pt" viewBox="0 0 320.000000 320.000000"
 preserveAspectRatio="xMidYMid meet">

<g transform="translate(0.000000,320.000000) scale(0.100000,-0.100000)"
fill="#000000" stroke="none">
<path d="M2164 3135 c-7 -19 -14 -40 -14 -48 0 -7 -5 -18 -11 -24 -19 -19 -23
-250 -5 -335 17 -84 22 -233 7 -223 -5 3 -22 30 -38 61 -15 31 -42 72 -59 93
-49 57 -96 208 -109 356 -10 97 -18 115 -55 115 -33 0 -33 0 -50 -110 -13 -87
-13 -391 1 -465 7 -38 24 -78 48 -114 60 -88 73 -119 93 -221 18 -93 18 -189
-2 -235 -4 -11 -16 -42 -27 -70 -12 -34 -40 -73 -88 -122 -61 -63 -76 -73
-105 -73 -26 0 -31 3 -22 12 7 7 12 24 12 38 0 20 -9 32 -41 49 l-41 23 27 28
c15 16 25 36 23 47 -3 15 -14 18 -66 20 -92 2 -110 8 -114 40 -2 23 -10 29
-43 36 -22 4 -81 7 -132 5 -86 -3 -94 -5 -122 -32 -20 -20 -31 -40 -31 -58 0
-25 4 -28 33 -28 43 -1 106 -31 138 -67 50 -57 79 -108 79 -139 l0 -32 -44 13
c-24 7 -63 23 -87 34 -23 12 -50 21 -59 21 -26 0 -136 121 -160 175 -12 28
-29 65 -38 84 -14 29 -17 70 -17 265 0 127 -4 245 -9 261 -16 54 -100 206
-139 251 -32 36 -45 44 -73 44 -32 0 -34 -2 -34 -33 0 -18 9 -57 21 -87 12
-30 30 -89 40 -130 18 -68 19 -87 9 -205 -7 -71 -12 -137 -14 -145 -2 -21 -62
105 -75 160 -40 163 -82 249 -153 316 -109 103 -189 132 -196 71 -3 -21 8 -40
42 -79 51 -58 106 -161 106 -196 0 -13 5 -33 12 -45 6 -12 11 -38 9 -58 -1
-20 5 -73 13 -119 9 -46 15 -84 13 -86 -1 -2 -49 47 -106 107 -58 62 -120 118
-140 127 -20 9 -43 22 -52 30 -11 8 -35 12 -65 10 -45 -3 -49 -5 -52 -31 -3
-23 10 -42 80 -115 46 -49 94 -110 108 -137 13 -28 41 -70 62 -94 56 -64 46
-70 -20 -12 -85 74 -148 92 -305 89 l-122 -3 0 -25 c0 -29 34 -50 81 -50 71 0
243 -122 295 -208 12 -20 37 -53 55 -72 l33 -35 -190 3 c-202 4 -219 0 -219
-43 0 -32 16 -41 90 -55 70 -13 198 -69 220 -95 8 -9 40 -30 72 -46 32 -16 58
-32 58 -34 0 -3 -9 -1 -19 5 -28 14 -204 13 -219 -2 -23 -23 -12 -34 70 -72
46 -21 94 -45 108 -54 14 -9 57 -29 95 -44 62 -25 83 -28 182 -28 l112 0 3
-32 3 -33 66 1 c50 0 75 6 103 23 l37 23 6 -21 c8 -30 64 -28 120 4 l43 26 0
-42 0 -41 80 4 c44 2 80 0 80 -4 0 -20 149 1 203 28 19 10 27 22 27 40 0 14 3
24 8 22 4 -2 27 -14 52 -26 25 -11 77 -54 117 -94 112 -115 129 -198 65 -323
-40 -77 -174 -197 -235 -210 -17 -4 -37 -12 -44 -17 -6 -5 -46 -12 -87 -15
-100 -8 -208 14 -343 69 -61 25 -83 20 -83 -20 0 -22 9 -37 34 -56 19 -14 37
-26 40 -26 3 0 34 -13 68 -29 69 -33 171 -50 301 -52 45 -1 72 -4 60 -6 -13
-2 -23 -9 -23 -14 0 -5 -11 -9 -24 -9 -14 0 -28 -4 -31 -10 -8 -13 -212 -13
-220 0 -3 6 -15 10 -26 10 -32 0 -137 48 -249 113 -149 88 -239 179 -317 322
-61 113 -85 134 -110 99 -25 -35 -9 -111 50 -229 78 -157 184 -267 337 -351
19 -10 42 -24 50 -30 14 -11 143 -57 185 -67 11 -2 -18 -4 -65 -3 -80 1 -85 0
-88 -20 -3 -24 39 -64 67 -64 9 0 28 -7 44 -15 39 -20 161 -35 290 -35 97 0
157 8 262 36 l20 5 -20 -17 c-34 -28 -119 -62 -186 -74 -87 -17 -109 -32 -109
-75 l0 -35 120 0 c66 0 120 4 120 8 0 5 28 14 63 21 34 7 76 20 93 29 18 9 57
30 87 45 63 32 231 199 253 253 17 40 40 58 29 23 -4 -13 -16 -41 -27 -62 -11
-23 -18 -53 -16 -75 9 -109 134 21 185 193 32 107 23 406 -12 435 -8 6 -17 25
-20 41 -15 66 -97 204 -171 286 l-75 82 98 3 c94 3 98 4 101 26 4 26 -29 68
-60 78 -40 12 -14 19 64 16 46 -2 107 1 136 8 48 11 52 14 52 41 0 16 -6 30
-12 31 -7 1 21 4 62 7 69 6 75 8 78 29 2 13 -1 29 -7 36 -17 21 -2 26 75 26
40 0 83 4 96 9 40 15 118 92 143 140 12 25 64 86 114 135 112 109 120 146 32
146 -47 0 -91 -29 -197 -132 -57 -54 -110 -98 -118 -98 -24 0 -19 14 12 32 38
22 182 174 182 191 0 8 9 22 20 32 11 10 20 26 20 35 0 10 39 53 86 96 184
169 194 181 194 219 0 23 -6 38 -15 41 -14 6 -100 -31 -155 -66 -14 -9 -45
-22 -70 -29 -73 -21 -162 -70 -207 -114 l-43 -41 9 31 c5 17 17 71 26 119 24
124 71 214 162 316 68 75 57 124 -25 116 -95 -9 -251 -151 -252 -230 0 -15 -4
-30 -10 -33 -5 -3 -10 -13 -10 -21 0 -20 -51 -127 -57 -120 -3 2 0 20 6 38 6
18 19 101 31 183 24 179 41 240 87 320 25 42 36 73 37 105 1 43 -1 45 -28 48
-23 3 -39 -6 -83 -50 -50 -49 -133 -173 -133 -197 0 -6 -4 -19 -10 -29 -5 -9
-21 -68 -36 -130 -14 -62 -30 -115 -35 -118 -5 -3 -10 -15 -10 -27 -1 -12 -5
22 -9 76 -4 55 -15 115 -23 135 -8 21 -27 66 -42 102 -24 57 -28 82 -32 203
l-6 137 -39 0 c-35 0 -40 -3 -54 -35z m77 -131 c4 -97 10 -148 21 -169 43 -83
71 -190 77 -294 3 -58 10 -106 15 -106 18 0 54 90 80 200 38 154 98 273 181
355 36 35 67 61 71 57 3 -3 -9 -37 -28 -74 -52 -101 -75 -181 -98 -348 -12
-82 -33 -187 -47 -233 -37 -120 -19 -143 45 -58 18 24 41 67 51 95 10 28 21
54 24 58 4 3 7 15 7 25 0 55 75 152 158 202 111 67 155 55 79 -22 -84 -87
-137 -189 -161 -312 -33 -160 -61 -215 -160 -307 -42 -39 -76 -74 -76 -77 0
-13 42 -5 78 13 20 11 78 64 129 119 103 112 168 159 263 192 36 12 100 40
143 62 42 21 77 35 77 30 0 -18 -74 -93 -131 -133 -54 -38 -149 -140 -149
-159 0 -17 -79 -126 -126 -175 -74 -77 -115 -103 -180 -118 -104 -24 -73 -57
53 -57 65 0 88 14 187 109 88 85 158 132 185 123 7 -2 -25 -42 -75 -92 -48
-49 -98 -108 -112 -132 -34 -58 -68 -95 -121 -129 -38 -25 -55 -29 -114 -29
-98 0 -130 -21 -87 -57 11 -10 20 -21 20 -25 0 -5 -36 -8 -80 -8 -88 0 -108
-13 -75 -50 17 -18 16 -19 -7 -25 -32 -8 -236 -1 -265 9 -55 20 10 -68 77
-104 43 -23 16 -35 -90 -40 -105 -5 -127 -15 -95 -42 9 -7 50 -52 93 -99 75
-83 150 -207 166 -274 4 -16 13 -37 21 -45 17 -20 35 -131 35 -220 0 -110 -47
-254 -109 -336 -39 -51 -68 -70 -58 -38 3 11 22 60 43 109 27 67 37 105 38
150 1 44 -3 60 -13 60 -7 0 -23 -27 -36 -60 -107 -284 -375 -475 -667 -475
-48 0 -88 4 -88 9 0 18 29 31 101 46 92 19 119 30 189 73 62 38 160 130 160
149 0 20 -18 15 -58 -16 -20 -15 -66 -40 -102 -55 -177 -71 -390 -75 -570 -8
-86 32 -108 59 -39 49 146 -22 388 -19 374 4 -4 5 -48 9 -100 9 -52 0 -96 4
-99 9 -3 5 -23 12 -43 16 -88 15 -236 79 -323 138 -99 68 -223 206 -275 306
-28 55 -61 164 -57 188 4 25 22 32 22 10 0 -8 21 -54 47 -103 38 -71 68 -110
149 -190 97 -97 108 -105 245 -173 80 -39 154 -71 166 -71 12 0 25 -4 28 -10
4 -6 57 -10 128 -10 93 0 136 5 179 19 61 21 108 48 108 62 0 5 -45 9 -101 9
-139 0 -231 15 -319 52 -68 29 -156 86 -146 95 2 2 44 -9 92 -25 142 -47 192
-55 306 -50 94 4 111 8 179 41 111 53 199 146 236 247 20 55 16 167 -8 220
-26 59 -121 155 -184 187 -61 31 -164 134 -190 188 -13 27 -22 82 -30 171 -9
116 -14 136 -37 172 -45 68 -109 105 -198 114 l-25 3 34 32 c42 39 96 49 184
37 53 -8 62 -12 65 -31 5 -35 25 -44 105 -46 l76 -2 -30 -30 c-16 -17 -29 -36
-29 -43 0 -7 22 -24 50 -40 27 -15 50 -30 50 -34 0 -3 -13 -11 -30 -17 -62
-21 -27 -51 60 -51 66 0 67 0 114 48 99 98 136 192 138 347 2 158 -16 231 -90
354 -25 41 -51 97 -58 125 -18 65 -18 333 0 439 11 70 28 109 40 96 3 -3 12
-59 20 -125 25 -201 44 -260 127 -385 24 -36 55 -89 69 -118 16 -32 31 -50 40
-48 23 4 26 228 4 327 -24 109 -14 239 26 327 44 96 54 83 61 -83z m-1369
-262 c48 -55 120 -184 139 -252 8 -29 12 -124 13 -275 l1 -230 37 -75 c55
-109 139 -189 238 -225 41 -15 85 -31 98 -36 19 -7 22 -16 22 -58 0 -27 9 -80
21 -117 17 -58 30 -79 81 -130 34 -35 57 -67 54 -73 -14 -22 -169 -72 -182
-58 -2 2 0 16 5 31 13 33 2 33 -45 1 -25 -17 -50 -25 -80 -25 -49 0 -53 6 -24
43 25 31 52 105 41 111 -4 3 -30 -13 -57 -36 -49 -41 -152 -94 -162 -83 -3 3
6 18 20 33 33 35 50 69 39 76 -5 3 -31 -12 -57 -33 -55 -44 -160 -91 -201 -91
l-27 0 32 33 c35 36 43 64 15 51 -10 -4 -71 -9 -135 -12 -110 -4 -122 -2 -190
24 -40 15 -79 33 -87 38 -7 6 -57 32 -110 58 l-96 47 70 0 c50 0 99 -8 170
-29 119 -35 173 -38 206 -10 21 17 22 21 9 30 -8 5 -42 10 -76 10 -51 0 -75 7
-151 44 -50 24 -94 49 -98 55 -14 23 -162 89 -226 100 -77 15 -94 23 -86 45 5
14 28 16 155 16 134 0 156 -3 218 -25 118 -43 124 -29 29 65 -36 36 -77 84
-90 106 -48 82 -219 204 -285 204 -15 0 -43 6 -61 14 -33 14 -32 14 53 21 90
7 165 -3 221 -32 15 -7 67 -51 116 -97 79 -76 152 -126 181 -126 19 0 10 26
-16 51 -40 36 -167 208 -200 270 -16 30 -66 93 -112 140 -45 47 -82 89 -82 93
0 14 42 5 95 -20 44 -21 86 -58 197 -175 181 -191 201 -201 149 -74 -25 59
-34 99 -41 183 -5 59 -13 125 -18 147 -14 64 -57 148 -112 216 -27 34 -48 64
-46 67 9 9 115 -70 164 -122 55 -58 91 -124 116 -213 36 -128 58 -185 92 -243
19 -33 39 -58 45 -55 5 4 9 27 9 53 0 26 5 103 12 170 11 110 10 133 -6 209
-9 48 -28 113 -42 146 -38 95 -29 103 38 29z m588 -1178 c0 -14 -4 -23 -10
-19 -5 3 -10 15 -10 26 0 10 5 19 10 19 6 0 10 -12 10 -26z m-807 -111 c-7 -2
-21 -2 -30 0 -10 3 -4 5 12 5 17 0 24 -2 18 -5z m1527 -998 c0 -8 -4 -15 -10
-15 -5 0 -7 7 -4 15 4 8 8 15 10 15 2 0 4 -7 4 -15z"/>
</g>
</svg>
